:version 1.10
:name ASF
:units
  mass 1
  length 1
  angle deg
:documentation
  ASF file generated by Kaydara
:root
  axis xyz
  order  tx ty tz rx ry rz
  position 0 0 0
  orientation 0 0 0
:bonedata
  begin
    id 1
    name LeftUpLegDummy
    direction 1 -2.30186e-007 -8.31532e-007
    length 2.93387
    axis 0 0 0 xyz
  end
  begin
    id 2
    name LeftUpLeg
    direction -1.82929e-007 -1 -1.48925e-009
    length 17.3336
    axis -3.48766 0.00143442 -0.000521554 xyz
    dof rx ry rz
  end
  begin
    id 3
    name LeftLeg
    direction -1.82929e-007 -1 -5.23717e-011
    length 14.9995
    axis 3.68178 -0.00654042 -0.000282425 xyz
    dof rx ry rz
  end
  begin
    id 4
    name LeftFoot
    direction 8.31532e-007 -4.54534e-011 1
    length 6.74421
    axis 1.87234e-006 4.66016e-005 -5.96866e-006 xyz
    dof rx ry rz
  end
  begin
    id 5
    name LeftToes
    direction 0.00818058 -0.00485161 0.999955
    length 3.85048
    axis 1.06247e-005 4.65869e-005 -5.96999e-006 xyz
    dof rx ry rz
  end
  begin
    id 6
    name SpineDummy
    direction -5.8607e-008 0.943407 -0.331637
    length 5.93572
    axis 0 0 0 xyz
  end
  begin
    id 7
    name Spine
    direction -1.04988e-007 0.999988 0.00495137
    length 10.1015
    axis -0.001389 0.000121417 6.61666e-006 xyz
    dof rx ry rz
  end
  begin
    id 8
    name Spine1
    direction 0 0 0
    length 0
    axis -0.001389 0.00012144 6.56766e-006 xyz
    dof rx ry rz
  end
  begin
    id 9
    name RightShoulderDummy
    direction -0.98348 0.17941 -0.0240696
    length 3.59882
    axis -0.001389 0.00012144 6.56766e-006 xyz
  end
  begin
    id 10
    name RightShoulder
    direction -0.978693 0.204882 0.0135597
    length 2.70001
    axis 0.215806 0.000203631 -0.00679732 xyz
    dof rx ry rz
  end
  begin
    id 11
    name RightArm
    direction -1 3.85509e-006 8.31394e-007
    length 10.2459
    axis -23.2009 -0.134239 -0.964098 xyz
    dof rx ry rz
  end
  begin
    id 12
    name RightForeArm
    direction -1 3.85569e-006 8.3129e-007
    length 8.16799
    axis -9.92322 0.0658061 0.17887 xyz
    dof rx ry rz
  end
  begin
    id 13
    name RightHand
    direction -0.992843 -0.0414604 0.112003
    length 5.28593
    axis -0.00960638 0.00330669 -0.185225 xyz
    dof rx ry rz
  end
  begin
    id 14
    name LeftShoulder1Dummy
    direction 0.983523 0.179172 -0.0240748
    length 3.59866
    axis -0.001389 0.00012144 6.56766e-006 xyz
  end
  begin
    id 15
    name LeftShoulder1
    direction 0.978627 0.205195 0.0135605
    length 2.70019
    axis -0.001389 0.00012144 6.57583e-006 xyz
    dof rx ry rz
  end
  begin
    id 16
    name LeftArm
    direction 1 3.51895e-006 -8.60188e-007
    length 10.2459
    axis -23.1894 0.134785 0.967513 xyz
    dof rx ry rz
  end
  begin
    id 17
    name LeftForeArm
    direction 1 3.51921e-006 -7.32029e-007
    length 8.16799
    axis -9.91835 -0.0656957 -0.177789 xyz
    dof rx ry rz
  end
  begin
    id 18
    name LeftHand
    direction 0.992938 -0.0411636 0.11126
    length 5.32135
    axis -0.00960237 -0.00340661 0.185177 xyz
    dof rx ry rz
  end
  begin
    id 19
    name HEadDummy
    direction 1.01974e-006 0.999861 -0.016675
    length 2.99946
    axis -0.001389 0.00012144 6.56766e-006 xyz
  end
  begin
    id 20
    name HEad
    direction -0.0222689 0.980941 0.193023
    length 5.12695
    axis -0.001389 0.00012144 6.56766e-006 xyz
    dof rx ry rz
  end
  begin
    id 21
    name RightUpLegDummy
    direction -1 2.30186e-007 8.31532e-007
    length 2.93387
    axis 0 0 0 xyz
  end
  begin
    id 22
    name RightUpLeg
    direction -1.82966e-007 -1 1.56832e-007
    length 17.3336
    axis -3.4909 -0.000906625 0.00028951 xyz
    dof rx ry rz
  end
  begin
    id 23
    name RightLeg
    direction -1.82786e-007 -1 -1.80317e-007
    length 14.9995
    axis 3.68513 0.0193739 -0.131021 xyz
    dof rx ry rz
  end
  begin
    id 24
    name RightFoot
    direction 8.31721e-007 -4.63324e-011 1
    length 6.74421
    axis 4.81691e-005 -0.120479 -0.188785 xyz
    dof rx ry rz
  end
  begin
    id 25
    name RightToes
    direction 0.00124746 -0.014064 0.9999
    length 3.85082
    axis 0.000481921 0.542163 -0.142575 xyz
    dof rx ry rz
  end
:hierarchy
  begin
    root LeftUpLegDummy SpineDummy RightUpLegDummy
    LeftUpLegDummy LeftUpLeg
    LeftUpLeg LeftLeg
    LeftLeg LeftFoot
    LeftFoot LeftToes
    SpineDummy Spine
    Spine Spine1
    Spine1 RightShoulderDummy LeftShoulder1Dummy HEadDummy
    RightShoulderDummy RightShoulder
    RightShoulder RightArm
    RightArm RightForeArm
    RightForeArm RightHand
    LeftShoulder1Dummy LeftShoulder1
    LeftShoulder1 LeftArm
    LeftArm LeftForeArm
    LeftForeArm LeftHand
    HEadDummy HEad
    RightUpLegDummy RightUpLeg
    RightUpLeg RightLeg
    RightLeg RightFoot
    RightFoot RightToes
  end

:SAMPLES-PER-SECOND 30
:FULLY-SPECIFIED
:DEGREES
269
root  -2.17661 34.7667 46.5534 -169.429 32.7181 -179.765
LeftUpLeg  -13.4398 12.8069 0.0730999
LeftLeg  17.1714 8.68044 2.07148
LeftFoot  -2.20473 -0.00532127 -0.276162
LeftToes  -9.81005 1.61378e-006 8.80029e-008
Spine  4.37401 -0.751366 -2.47197
Spine1  8.45044 -1.21885 -4.88449
RightShoulder  -0.00651987 7.59772 5.57196
RightArm  -88.0763 -46.7445 43.8033
RightForeArm  -5.75953 37.1024 7.63725
RightHand  1.84583 -6.81067 -29.8991
LeftShoulder1  0.0284699 1.45712 -8.59102
LeftArm  -25.6427 9.95422 -60.5925
LeftForeArm  28.2289 -19.6183 -3.59603
LeftHand  0.105351 2.04061 5.52142
HEad  22.0451 -3.88792 -7.63478
RightUpLeg  -23.6439 -13.3928 0.441649
RightLeg  33.2093 -11.9865 -6.71534
RightFoot  -3.75263 0.0214766 1.03332
RightToes  -27.3124 -0.125858 -0.232859
270
root  -1.66441 34.7307 45.7312 -169.596 29.5906 179.744
LeftUpLeg  -11.5933 11.0362 0.271623
LeftLeg  16.0008 7.58622 1.64956
LeftFoot  -2.5681 -0.00638961 -0.285072
LeftToes  -11.0178 1.61378e-006 8.80029e-008
Spine  4.37898 -1.0139 -2.42859
Spine1  8.46211 -1.78395 -4.80146
RightShoulder  -0.00657646 7.34548 5.53499
RightArm  -88.8351 -47.4621 44.4541
RightForeArm  -5.25035 37.9778 7.88646
RightHand  1.88661 -6.72942 -30.8918
LeftShoulder1  0.0316958 1.32788 -8.43937
LeftArm  -25.9565 8.87567 -60.376
LeftForeArm  28.4494 -20.2864 -3.72934
LeftHand  0.0941502 1.78158 5.65767
HEad  22.3373 -7.94353 -6.32495
RightUpLeg  -25.9256 -13.1614 2.08322
RightLeg  26.4131 -10.9657 -4.5578
RightFoot  -1.89811 0.00202033 0.499694
RightToes  -28.8191 -0.135875 -0.243676
271
root  -1.15161 34.6524 44.8729 -169.791 27.0969 179.078
LeftUpLeg  -9.80538 9.56104 0.295103
LeftLeg  15.1348 6.76201 1.36478
LeftFoot  -3.1159 -0.0085783 -0.315409
LeftToes  -12.1143 1.61378e-006 8.80029e-008
Spine  4.35434 -1.22401 -2.41289
Spine1  8.41651 -2.24819 -4.75902
RightShoulder  -0.00667353 7.07439 5.24112
RightArm  -89.361 -47.7259 45.0738
RightForeArm  -4.15588 38.6908 8.09541
RightHand  1.93597 -6.54366 -32.5304
LeftShoulder1  0.0347378 1.28195 -8.50104
LeftArm  -26.5227 8.11369 -60.2965
LeftForeArm  28.3729 -20.8161 -3.83598
LeftHand  0.0822832 1.54753 5.69128
HEad  22.4841 -12.1031 -5.42626
RightUpLeg  -28.0995 -12.9006 3.09709
RightLeg  19.3012 -7.47029 -2.08087
RightFoot  2.69286 0.015569 -0.28477
RightToes  -30.3346 -0.146232 -0.254285
272
root  -0.63668 34.4968 43.9672 -170.208 25.2237 177.836
LeftUpLeg  -8.24383 8.41943 -0.233537
LeftLeg  15.0865 6.09012 1.22426
LeftFoot  -4.07648 -0.0135639 -0.381134
LeftToes  -13.4932 1.61378e-006 8.80029e-008
Spine  4.26946 -1.35744 -2.55111
Spine1  8.23349 -2.5405 -5.01933
RightShoulder  -0.00698413 6.83528 4.61785
RightArm  -90.2773 -48.1427 46.1326
RightForeArm  -2.78008 40.0475 8.50362
RightHand  1.8921 -6.18035 -33.6118
LeftShoulder1  0.0369018 1.21142 -8.61924
LeftArm  -26.9005 7.82799 -60.2684
LeftForeArm  28.3157 -21.1037 -3.89422
LeftHand  0.0804975 1.45243 5.9458
HEad  22.4663 -16.5655 -4.85422
RightUpLeg  -30.3547 -13.5176 3.6558
RightLeg  13.0187 -2.80551 -0.459745
RightFoot  5.09925 0.0247195 -0.177556
RightToes  -31.774 -0.156326 -0.264104
273
root  -0.092796 34.267 43.0093 -170.748 23.2442 176.622
LeftUpLeg  -6.98355 7.50072 -0.627797
LeftLeg  16.3128 5.13357 1.14681
LeftFoot  -5.71216 -0.0231501 -0.464035
LeftToes  -15.0376 1.61378e-006 8.80029e-008
Spine  4.19061 -1.54751 -2.67629
Spine1  8.07492 -2.91737 -5.3023
RightShoulder  -0.00716806 6.43157 4.31248
RightArm  -91.4325 -48.5084 47.2869
RightForeArm  -1.04175 41.8093 9.0593
RightHand  1.84182 -5.99505 -33.7251
LeftShoulder1  0.0383199 0.972886 -8.33433
LeftArm  -26.9928 8.07554 -60.5153
LeftForeArm  28.3939 -21.1761 -3.90889
LeftHand  0.0817977 1.42914 6.1514
HEad  22.1761 -22.0539 -4.26013
RightUpLeg  -32.6312 -16.8057 5.29697
RightLeg  7.67551 2.06029 0.145186
RightFoot  3.84772 0.0055589 0.212019
RightToes  -35.1268 -0.180771 -0.285973
274
root  0.474674 33.9963 41.9671 -171.377 21.1285 175.246
LeftUpLeg  -5.63092 6.28604 -1.12345
LeftLeg  17.8409 4.34963 1.09405
LeftFoot  -7.38216 -0.0333588 -0.51711
LeftToes  -16.6812 1.61378e-006 8.80029e-008
Spine  4.10853 -1.86853 -2.76855
Spine1  7.91683 -3.5713 -5.50934
RightShoulder  -0.00726359 5.86019 4.15982
RightArm  -92.1739 -48.5921 48.1655
RightForeArm  0.416119 43.456 9.60761
RightHand  1.78062 -5.90036 -33.1554
LeftShoulder1  0.039399 0.695845 -8.13826
LeftArm  -27.1276 8.6906 -60.9028
LeftForeArm  28.8481 -20.849 -3.84242
LeftHand  0.0749405 1.36762 6.00445
HEad  21.6044 -28.4717 -4.16405
RightUpLeg  -34.6384 -21.4627 7.54178
RightLeg  2.85047 3.12924 -0.0445713
RightFoot  4.55476 0.00244476 0.316025
RightToes  -38.9558 -0.210196 -0.309148
275
root  1.09317 33.6921 40.8315 -172.107 19.0627 173.879
LeftUpLeg  -4.01439 5.63197 -1.41877
LeftLeg  19.5252 3.10058 0.877115
LeftFoot  -8.71274 -0.032742 -0.429805
LeftToes  -19.9386 1.61378e-006 8.80029e-008
Spine  3.9848 -2.263 -2.81383
Spine1  7.68311 -4.36715 -5.60795
RightShoulder  -0.00733164 5.36235 4.18458
RightArm  -91.7425 -48.3322 48.264
RightForeArm  1.0705 44.1635 9.8528
RightHand  1.7922 -5.94406 -33.1269
LeftShoulder1  0.0398574 0.325873 -7.95226
LeftArm  -27.09 9.95652 -61.4155
LeftForeArm  29.3955 -20.2207 -3.71569
LeftHand  0.0737653 1.31718 6.00885
HEad  21.008 -34.9532 -4.62191
RightUpLeg  -37.4681 -26.3534 10.1035
RightLeg  2.39908 -0.868707 0.0202109
RightFoot  3.25898 0.0103777 0.0127485
RightToes  -40.0176 -0.218624 -0.315222
276
root  1.75566 33.3822 39.6187 -172.786 17.595 172.947
LeftUpLeg  -2.43759 5.38903 -1.12579
LeftLeg  21.9467 1.65177 0.542444
LeftFoot  -9.55246 -0.0194807 -0.233158
LeftToes  -25.1883 1.61378e-006 8.80029e-008
Spine  3.76786 -2.54375 -2.64018
Spine1  7.27852 -4.95965 -5.29345
RightShoulder  -0.00732149 4.89969 4.35184
RightArm  -91.0229 -47.3217 47.4471
RightForeArm  1.57519 43.7446 9.70857
RightHand  1.77501 -5.9145 -32.9802
LeftShoulder1  0.0394136 0.0739753 -7.93615
LeftArm  -26.691 11.7627 -62.1584
LeftForeArm  29.7515 -19.3267 -3.5374
LeftHand  0.0814498 1.46881 5.94949
HEad  20.5229 -40.9532 -5.57426
RightUpLeg  -37.697 -27.9418 10.5155
RightLeg  2.39835 -8.14156 0.184282
RightFoot  3.21861 0.0219916 -0.405106
RightToes  -36.4564 -0.190812 -0.294242
277
root  2.49108 33.1157 38.2841 -173.493 16.5072 172.833
LeftUpLeg  -0.706928 4.50438 -0.0533743
LeftLeg  25.0525 0.913806 0.354536
LeftFoot  -9.49486 -0.00941461 -0.113372
LeftToes  -32.3252 1.61378e-006 8.80029e-008
Spine  3.4776 -2.80079 -2.13761
Spine1  6.74977 -5.52736 -4.31438
RightShoulder  -0.00712223 4.65541 5.02906
RightArm  -89.4305 -45.698 43.9401
RightForeArm  1.17617 41.9844 9.12002
RightHand  1.97449 -6.40595 -33.8285
LeftShoulder1  0.0377858 -0.0848171 -7.91435
LeftArm  -26.8445 14.2217 -63.4299
LeftForeArm  30.5863 -18.0462 -3.28533
LeftHand  0.0780793 1.46612 5.69957
HEad  20.0826 -45.7727 -7.0366
RightUpLeg  -34.6981 -25.5202 8.1783
RightLeg  2.44543 -14.4655 0.314591
RightFoot  4.91245 0.0686047 -1.22152
RightToes  -30.6749 -0.148596 -0.256629
278
root  3.33157 32.9235 36.8662 -174.027 15.6079 173.765
LeftUpLeg  0.477521 2.93294 1.99406
LeftLeg  29.612 0.535083 0.256506
LeftFoot  -7.92033 -0.00325395 -0.0470122
LeftToes  -42.3184 1.61378e-006 8.80029e-008
Spine  3.07608 -3.01283 -1.25525
Spine1  6.0024 -6.0159 -2.54238
RightShoulder  -0.00678913 4.54617 5.70983
RightArm  -87.5571 -43.8413 37.0664
RightForeArm  0.304439 38.2944 7.98813
RightHand  2.26445 -6.68243 -37.0008
LeftShoulder1  0.0329817 -0.288331 -7.76143
LeftArm  -26.8636 17.282 -65.1936
LeftForeArm  31.326 -16.6482 -3.01452
LeftHand  0.0874271 1.75639 5.30787
HEad  19.5563 -49.4902 -8.88434
RightUpLeg  -31.2231 -22.1224 6.39612
RightLeg  2.84804 -15.4204 0.228123
RightFoot  10.2725 0.285521 -2.79795
RightToes  -19.9922 -0.0814154 -0.17676
279
root  4.14201 32.9503 35.5615 -174.388 15.8291 176.35
LeftUpLeg  0.212096 1.84664 5.20007
LeftLeg  36.6587 0.69624 0.446972
LeftFoot  -3.22114 -0.00111699 -0.0397351
LeftToes  -55.5646 1.61378e-006 8.80029e-008
Spine  2.92718 -2.97255 0.143287
Spine1  5.75647 -6.04204 0.186669
RightShoulder  -0.00634194 4.17766 5.96126
RightArm  -84.4031 -40.6062 28.1268
RightForeArm  0.802086 31.6785 6.22933
RightHand  2.52352 -6.87333 -39.8776
LeftShoulder1  0.0238243 -0.132583 -8.16562
LeftArm  -28.105 19.2747 -67.2967
LeftForeArm  32.8893 -14.8789 -2.67713
LeftHand  0.0918912 2.0689 4.70003
HEad  18.6344 -52.1251 -9.85974
RightUpLeg  -28.1354 -21.8467 7.97348
RightLeg  3.98876 -15.2194 -0.0740854
RightFoot  13.5311 0.479758 -3.66465
RightToes  -15.4764 -0.0577028 -0.139494
280
root  4.85753 33.1901 34.3841 -174.557 18.0319 179.086
LeftUpLeg  -1.44104 3.09417 8.26786
LeftLeg  45.323 0.867171 0.764575
LeftFoot  4.67832 -0.00275232 0.0673692
LeftToes  -61.8265 1.61378e-006 8.80029e-008
Spine  2.9198 -2.59895 1.29899
Spine1  5.79684 -5.36012 2.4772
RightShoulder  -0.00607812 3.66413 5.02677
RightArm  -80.3161 -36.9907 21.6042
RightForeArm  2.38475 24.571 4.60842
RightHand  2.74108 -7.376 -40.3249
LeftShoulder1  0.0119182 0.0086157 -8.07386
LeftArm  -32.127 20.8908 -69.9945
LeftForeArm  35.2172 -12.9891 -2.32238
LeftHand  0.0965161 2.27022 4.48449
HEad  17.1698 -53.8967 -9.04435
RightUpLeg  -27.5946 -25.1299 11.6176
RightLeg  9.52917 -9.0043 -0.914702
RightFoot  9.08426 0.148202 -1.48772
RightToes  -5.77392 -0.017094 -0.0538169
281
root  5.55357 33.4934 33.3488 -175.081 20.1623 -179.547
LeftUpLeg  -4.45152 3.77302 9.81146
LeftLeg  55.1304 0.644451 0.799765
LeftFoot  10.8692 -0.0152341 0.160119
LeftToes  -42.2385 1.61378e-006 8.80029e-008
Spine  3.13081 -2.48209 1.71426
Spine1  6.2325 -5.12733 3.28681
RightShoulder  -0.00563517 3.5218 3.91537
RightArm  -75.7085 -33.5891 17.3037
RightForeArm  4.96322 20.0117 3.67
RightHand  3.06401 -8.6004 -38.7616
LeftShoulder1  0.00394976 -0.0673662 -7.17089
LeftArm  -35.8313 22.3286 -72.6138
LeftForeArm  35.4934 -11.8594 -2.11395
LeftHand  0.151699 3.28788 4.90163
HEad  15.235 -55.44 -6.61497
RightUpLeg  -23.569 -22.2937 11.4686
RightLeg  9.28556 -9.71581 -0.944747
RightFoot  7.87051 0.122374 -1.4011
RightToes  -3.97252 -0.0111799 -0.0372152
282
root  6.21418 33.7242 32.4332 -175.588 22.2578 -179.772
LeftUpLeg  -9.01313 4.19067 9.54874
LeftLeg  63.9048 0.554729 0.957187
LeftFoot  16.6151 -0.0451153 0.308959
LeftToes  -24.8299 1.61378e-006 8.80029e-008
Spine  3.26943 -2.4999 1.39696
Spine1  6.49763 -5.09072 2.63973
RightShoulder  -0.00479696 3.60983 3.11556
RightArm  -70.3013 -29.8477 13.9976
RightForeArm  8.17928 17.8233 3.2416
RightHand  3.40588 -10.2203 -36.3882
LeftShoulder1  0.00195776 -0.479438 -6.71132
LeftArm  -35.2575 24.3774 -73.6842
LeftForeArm  32.5349 -13.3979 -2.40033
LeftHand  0.187685 4.34105 4.57166
HEad  14.1631 -56.6842 -4.2701
RightUpLeg  -20.3598 -22.0809 11.092
RightLeg  8.03034 -7.86195 -0.592823
RightFoot  6.71082 0.0778747 -0.950532
RightToes  -2.73764 -0.00742852 -0.0257309
